<?xml version="1.0" encoding="UTF-8" standalone="no"?>
<svg
   width="16"
   height="16"
   fill="currentColor"
   class="bi bi-palette-fill"
   viewBox="0 0 16 16"
   version="1.1"
   id="svg1"
   sodipodi:docname="colorwind.svg"
   inkscape:version="1.3.2 (091e20ef0f, 2023-11-25)"
   xmlns:inkscape="http://www.inkscape.org/namespaces/inkscape"
   xmlns:sodipodi="http://sodipodi.sourceforge.net/DTD/sodipodi-0.dtd"
   xmlns="http://www.w3.org/2000/svg"
   xmlns:svg="http://www.w3.org/2000/svg">
  <defs
     id="defs1" />
  <sodipodi:namedview
     id="namedview1"
     pagecolor="#505050"
     bordercolor="#ffffff"
     borderopacity="1"
     inkscape:showpageshadow="0"
     inkscape:pageopacity="0"
     inkscape:pagecheckerboard="1"
     inkscape:deskcolor="#505050"
     inkscape:zoom="23.5"
     inkscape:cx="8"
     inkscape:cy="7.9787234"
     inkscape:window-width="1366"
     inkscape:window-height="683"
     inkscape:window-x="0"
     inkscape:window-y="0"
     inkscape:window-maximized="1"
     inkscape:current-layer="svg1" />
  <path
     d="M 12.433,10.07 C 14.133,10.585 16,11.15 16,8 A 8,8 0 1 0 8,16 C 9.996,16 9.826,14.496 9.649,12.92 9.525,11.819 9.397,10.683 10,10 10.465,9.473 11.42,9.763 12.433,10.07 M 8,5 A 1.5,1.5 0 1 1 8,2 1.5,1.5 0 0 1 8,5 m 4.5,3 a 1.5,1.5 0 1 1 0,-3 1.5,1.5 0 0 1 0,3 M 5,6.5 a 1.5,1.5 0 1 1 -3,0 1.5,1.5 0 0 1 3,0 M 5.5,13 a 1.5,1.5 0 1 1 0,-3 1.5,1.5 0 0 1 0,3"
     id="path1"
     style="fill:#ff9955" />
  <path
     style="fill:#0000ff;stroke-width:0.0425532"
     d="M 5.2895855,12.952972 C 4.7993305,12.890408 4.3029394,12.501263 4.1325806,12.045938 4.0369065,11.790226 4.007508,11.391971 4.0663654,11.148936 c 0.096063,-0.396666 0.4294687,-0.796232 0.8269655,-0.991068 0.1985037,-0.0973 0.289627,-0.114893 0.5960308,-0.115086 0.3021924,-1.91e-4 0.4010486,0.01822 0.6008515,0.111906 0.3365182,0.15779 0.5670954,0.382769 0.7285236,0.710836 0.1237543,0.251503 0.1386854,0.320978 0.1384817,0.644357 -1.936e-4,0.307227 -0.017731,0.398167 -0.1150862,0.596788 -0.2933692,0.598521 -0.9005613,0.929505 -1.5525468,0.846303 z"
     id="path2" />
  <path
     style="fill:#ff0000;stroke-width:0.0425532"
     d="M 3.098009,7.9217165 C 2.6220068,7.7875199 2.1827538,7.3316576 2.0663654,6.8510638 2.0074057,6.6076062 2.0369068,6.2097731 2.1329566,5.9530571 2.2611257,5.6104946 2.6104946,5.2611257 2.9530571,5.1329566 3.2097731,5.0369068 3.6076062,5.0074057 3.8510638,5.0663654 4.2521325,5.1634947 4.6438613,5.4887931 4.838865,5.8866528 4.9397383,6.0924613 4.9570234,6.1804851 4.9572185,6.4893617 4.9574092,6.7915541 4.9389976,6.8904103 4.8453121,7.0902132 4.6890217,7.4235335 4.4627991,7.6571715 4.1447369,7.813753 3.8268128,7.9702666 3.4193069,8.0122983 3.098009,7.9217165 Z"
     id="path3" />
  <path
     style="fill:#ffff00;stroke-width:0.0425532"
     d="M 7.4596594,4.8679746 C 6.9888979,4.6869892 6.5943902,4.1743457 6.5301407,3.6601103 6.4748912,3.2179087 6.7128542,2.6396799 7.0648014,2.3609326 7.7485552,1.8193896 8.7152826,1.9559593 9.2013011,2.6627564 9.400133,2.9519097 9.5082,3.3532418 9.4698593,3.6601103 9.4047432,4.1812818 9.0085845,4.6903408 8.5282604,4.8700531 8.21968,4.9855078 7.7630651,4.9846197 7.4596594,4.8679746 Z"
     id="path4" />
  <path
     style="fill:#00ff00;stroke-width:0.0425532"
     d="M 12.097278,7.9197534 C 11.656911,7.7753399 11.348462,7.5032673 11.153239,7.0870481 11.061124,6.8906572 11.042592,6.7903775 11.042782,6.4893617 c 1.93e-4,-0.3064038 0.01779,-0.3975271 0.115086,-0.5960308 0.194836,-0.3974968 0.594402,-0.7309024 0.991068,-0.8269655 0.243458,-0.05896 0.641291,-0.029459 0.898007,0.066591 0.342562,0.1281691 0.691931,0.477538 0.8201,0.8201005 0.09605,0.256716 0.125551,0.6545491 0.06659,0.8980067 -0.0947,0.3910146 -0.429366,0.7963297 -0.812188,0.983627 -0.271989,0.1330719 -0.755353,0.1732178 -1.024169,0.085063 z"
     id="path5" />
</svg>
